<svg xmlns="http://www.w3.org/2000/svg" xmlns:xlink="http://www.w3.org/1999/xlink" width="2560" height="1440" viewBox="0 0 2560 1440">
  <defs>
    <clipPath id="clip-about-backdrop">
      <rect width="2560" height="1440"/>
    </clipPath>
  </defs>
  <g id="about-backdrop" clip-path="url(#clip-about-backdrop)">
    <rect width="2560" height="1440" fill="#fff"/>
    <rect id="Rectangle_1" data-name="Rectangle 1" width="2560" height="1441" fill="#202833"/>
    <g id="Ellipse_5" data-name="Ellipse 5" transform="translate(2464 543)" fill="rgba(102,252,241,0.7)" stroke="#707070" stroke-width="1">
      <ellipse cx="83" cy="80" rx="83" ry="80" stroke="none"/>
      <ellipse cx="83" cy="80" rx="82.5" ry="79.5" fill="none"/>
    </g>
    <ellipse id="Ellipse_6" data-name="Ellipse 6" cx="61" cy="59" rx="61" ry="59" transform="translate(2486 564)" fill="#202833"/>
    <line id="Line_2" data-name="Line 2" y1="273" x2="333" transform="translate(2171 312.608)" fill="none" stroke="rgba(102,252,241,0.7)" stroke-linecap="round" stroke-width="20"/>
    <line id="Line_3" data-name="Line 3" y1="184" x2="212" transform="translate(2380.5 338.5)" fill="none" stroke="rgba(102,252,241,0.7)" stroke-linecap="round" stroke-width="20"/>
    <g id="Ellipse_3" data-name="Ellipse 3" transform="translate(1958 586)" fill="rgba(102,252,241,0.7)" stroke="#707070" stroke-width="1">
      <ellipse cx="83" cy="80" rx="83" ry="80" stroke="none"/>
      <ellipse cx="83" cy="80" rx="82.5" ry="79.5" fill="none"/>
    </g>
    <g id="Ellipse_8" data-name="Ellipse 8" transform="translate(2442 -42)" fill="rgba(102,252,241,0.7)" stroke="#707070" stroke-width="1">
      <ellipse cx="83" cy="80" rx="83" ry="80" stroke="none"/>
      <ellipse cx="83" cy="80" rx="82.5" ry="79.5" fill="none"/>
    </g>
    <ellipse id="Ellipse_4" data-name="Ellipse 4" cx="61" cy="59" rx="61" ry="59" transform="translate(1980 607)" fill="#202833"/>
    <ellipse id="Ellipse_7" data-name="Ellipse 7" cx="61" cy="59" rx="61" ry="59" transform="translate(2464 -21)" fill="#202833"/>
  </g>
</svg>
