<svg xmlns="http://www.w3.org/2000/svg" xmlns:xlink="http://www.w3.org/1999/xlink" width="2560" height="1440" viewBox="0 0 2560 1440"><defs><clipPath id="b"><rect width="2560" height="1440"/></clipPath></defs><g id="a" clip-path="url(#b)"><rect width="2560" height="1440" fill="#fff"/><rect width="2560" height="1441" fill="#202833"/><g transform="translate(2464 543)" fill="#66fcf1" stroke="#707070" stroke-width="1"><ellipse cx="83" cy="80" rx="83" ry="80" stroke="none"/><ellipse cx="83" cy="80" rx="82.5" ry="79.5" fill="none"/></g><ellipse cx="61" cy="59" rx="61" ry="59" transform="translate(2486 564)" fill="#202833"/><line y1="273" x2="333" transform="translate(2171 312.608)" fill="none" stroke="#66fcf1" stroke-linecap="round" stroke-width="20"/><line y1="184" x2="212" transform="translate(2380.5 338.5)" fill="none" stroke="#66fcf1" stroke-linecap="round" stroke-width="20"/><g transform="translate(1958 586)" fill="#66fcf1" stroke="#707070" stroke-width="1"><ellipse cx="83" cy="80" rx="83" ry="80" stroke="none"/><ellipse cx="83" cy="80" rx="82.5" ry="79.5" fill="none"/></g><g transform="translate(2442 -42)" fill="#66fcf1" stroke="#707070" stroke-width="1"><ellipse cx="83" cy="80" rx="83" ry="80" stroke="none"/><ellipse cx="83" cy="80" rx="82.5" ry="79.5" fill="none"/></g><ellipse cx="61" cy="59" rx="61" ry="59" transform="translate(1980 607)" fill="#202833"/><ellipse cx="61" cy="59" rx="61" ry="59" transform="translate(2464 -21)" fill="#202833"/></g></svg>