<?xml version="1.0"?>
<svg xmlns="http://www.w3.org/2000/svg" xmlns:xlink="http://www.w3.org/1999/xlink" version="1.1" id="Layer_1" x="0px" y="0px" viewBox="0 0 320.96 320.96" style="enable-background:new 0 0 320.96 320.96;" xml:space="preserve" width="150px" height="150px"><g><g>
	<g>
		<path d="M254.08,130.347c-1.387,0-2.773,0.107-4.267,0.213c-5.547-18.773-22.613-32.427-42.453-33.493    C195.84,61.333,162.56,36.8,124.693,36.8C76.8,36.8,37.76,75.84,37.76,123.733c0,4.267,0.32,8.533,0.96,12.907    C15.36,147.52,0,171.2,0,197.227c0,36.907,29.973,66.88,66.88,66.88c14.72,0,28.907-4.907,40.533-13.76    c6.827,19.733,25.707,33.813,47.36,33.813c15.04,0,29.013-6.72,38.507-17.92c6.187,7.04,15.253,11.307,25.067,11.307    c10.773,0,20.8-5.227,26.987-13.973c2.88,0.32,5.867,0.533,8.747,0.533c36.907,0,66.88-29.973,66.88-66.88    C320.96,160.32,290.987,130.347,254.08,130.347z M254.187,250.56c-3.627,0-7.253-0.32-10.773-1.067l-5.013-0.96l-2.347,4.48    C232.64,259.84,225.813,264,218.347,264c-8.32,0-15.573-5.013-18.667-12.8l-5.44-13.76l-6.72,13.227    c-6.4,12.373-18.88,20.053-32.747,20.053c-18.987,0-35.093-14.827-36.587-33.813l-1.28-15.467l-10.133,11.52    c-10.133,11.2-24.64,17.707-39.68,17.707c-29.547,0-53.547-24-53.547-53.547c0-22.4,14.08-42.56,35.2-50.24l5.44-2.027    l-1.28-5.653c-1.173-5.227-1.707-10.56-1.707-15.68c0-40.64,33.067-73.6,73.6-73.6c33.493,0,62.827,22.72,71.147,55.253    l1.387,5.333l6.187-0.427c0.533-0.107,0.96-0.107,1.493-0.107c16.427,0,30.72,12.267,33.067,28.587l0.96,6.72l6.72-1.067    c3.093-0.533,5.867-0.747,8.427-0.747c29.547,0,53.547,24,53.547,53.547C307.733,226.56,283.733,250.56,254.187,250.56z" data-original="#000000" class="active-path" data-old_color="#000000" fill="#79AF2D"/>
	</g>
</g><g>
	<g>
		<polygon points="191.893,140.693 182.4,150.187 206.08,173.76 182.4,197.44 191.893,206.933 224.96,173.76   " data-original="#000000" class="active-path" data-old_color="#000000" fill="#79AF2D"/>
	</g>
</g><g>
	<g>
		<polygon points="125.867,150.187 116.373,140.693 83.307,173.76 116.373,206.933 125.867,197.44 102.187,173.76   " data-original="#000000" class="active-path" data-old_color="#000000" fill="#79AF2D"/>
	</g>
</g><g>
	<g>
		
			<rect x="100.948" y="167.095" transform="matrix(0.4472 -0.8944 0.8944 0.4472 -70.4279 233.5681)" width="105.597" height="13.333" data-original="#000000" class="active-path" data-old_color="#000000" fill="#79AF2D"/>
	</g>
</g></g> </svg>
