<svg xmlns="http://www.w3.org/2000/svg" xmlns:xlink="http://www.w3.org/1999/xlink" width="2560" height="1440" viewBox="0 0 2560 1440">
  <defs>
    <clipPath id="clip-skills-backdrop">
      <rect width="2560" height="1440"/>
    </clipPath>
  </defs>
  <g id="skills-backdrop" clip-path="url(#clip-skills-backdrop)">
    <rect width="2560" height="1440" fill="#fff"/>
    <rect id="Rectangle_2" data-name="Rectangle 2" width="1280" height="1441" transform="translate(1280)" fill="#50203a"/>
    <path id="Path_1" data-name="Path 1" d="M104.5,0C162.214,0,209,45.219,209,101S162.214,202,104.5,202,0,156.781,0,101,46.786,0,104.5,0Z" transform="translate(1163 619)" fill="#149f98"/>
    <rect id="Rectangle_1" data-name="Rectangle 1" width="1280" height="1441" fill="#10292e"/>
    <line id="Line_1" data-name="Line 1" y2="1441" transform="translate(1276.5 -0.5)" fill="none" stroke="#149f98" stroke-linecap="round" stroke-width="8"/>
    <ellipse id="Ellipse_14" data-name="Ellipse 14" cx="135.5" cy="130.5" rx="135.5" ry="130.5" transform="translate(-82 1229)" fill="rgba(200,207,205,0.7)"/>
    <ellipse id="Ellipse_13" data-name="Ellipse 13" cx="114" cy="110.5" rx="114" ry="110.5" transform="translate(-60 1249)" fill="#10292e"/>
    <line id="Line_5" data-name="Line 5" x1="243.5" y1="316.108" transform="translate(-90.5 221.5)" fill="none" stroke="rgba(200,207,205,0.7)" stroke-linecap="round" stroke-width="18" stroke-dasharray="50"/>
    <line id="Line_4" data-name="Line 4" y1="184" x2="212" transform="translate(-43.5 706.5)" fill="none" stroke="rgba(200,207,205,0.7)" stroke-linecap="round" stroke-width="18" stroke-dasharray="50"/>
    <line id="Line_6" data-name="Line 6" y1="184" x2="212" transform="translate(-43.5 957.5)" fill="none" stroke="rgba(200,207,205,0.7)" stroke-linecap="round" stroke-width="18" stroke-dasharray="50"/>
    <ellipse id="Ellipse_12" data-name="Ellipse 12" cx="83" cy="80" rx="83" ry="80" transform="translate(-83 560)" fill="rgba(200,207,205,0.7)"/>
    <ellipse id="Ellipse_11" data-name="Ellipse 11" cx="114" cy="110" rx="114" ry="110" transform="translate(-75 -46)" fill="rgba(200,207,205,0.7)"/>
    <ellipse id="Ellipse_10" data-name="Ellipse 10" cx="68.5" cy="66" rx="68.5" ry="66" transform="translate(-68 574)" fill="#10292e"/>
    <ellipse id="Ellipse_9" data-name="Ellipse 9" cx="94" cy="91" rx="94" ry="91" transform="translate(-55 -27)" fill="#10292e"/>
    <g id="technology" transform="translate(2285.777 74.903)">
      <path id="Path_24" data-name="Path 24" d="M199.576,136.173,185.74,160.138a3.3,3.3,0,0,1-4.1,1.411l-20.367-8.222a3.3,3.3,0,1,1,2.473-6.125l17.7,7.147,10.965-18.993L177.4,123.612a3.3,3.3,0,0,1-1.123-3.572,72.706,72.706,0,0,0,0-42.539,3.3,3.3,0,0,1,1.123-3.572L192.42,62.186,181.454,43.193l-17.7,7.147a3.3,3.3,0,0,1-3.655-.813,71.976,71.976,0,0,0-36.813-21.274,3.3,3.3,0,0,1-2.536-2.76l-2.66-18.886H96.155L93.5,25.492a3.3,3.3,0,0,1-2.536,2.76A71.977,71.977,0,0,0,54.147,49.525a3.3,3.3,0,0,1-3.655.813l-17.7-7.147L21.821,62.185,36.844,73.929A3.3,3.3,0,0,1,37.967,77.5a72.706,72.706,0,0,0,0,42.539,3.3,3.3,0,0,1-1.123,3.572L21.821,135.355l10.966,18.993,17.7-7.147a3.3,3.3,0,0,1,3.655.813,71.976,71.976,0,0,0,36.813,21.274,3.3,3.3,0,0,1,2.536,2.76l2.66,18.886h21.931l2.66-18.886a3.3,3.3,0,0,1,2.536-2.76,71.737,71.737,0,0,0,21.873-8.986,3.3,3.3,0,0,1,3.48,5.616,78.363,78.363,0,0,1-21.659,9.269l-2.748,19.51a3.3,3.3,0,0,1-3.271,2.842H93.285a3.3,3.3,0,0,1-3.271-2.842l-2.748-19.51a78.5,78.5,0,0,1-36.377-21.023L32.6,161.548a3.3,3.3,0,0,1-4.1-1.411L14.665,136.172a3.3,3.3,0,0,1,.826-4.254l15.522-12.135a79.372,79.372,0,0,1,0-42.029L15.491,65.62a3.3,3.3,0,0,1-.826-4.254L28.5,37.4a3.3,3.3,0,0,1,4.1-1.411l18.291,7.384A78.5,78.5,0,0,1,87.267,22.35l2.748-19.51A3.3,3.3,0,0,1,93.285,0h27.672a3.3,3.3,0,0,1,3.271,2.842l2.748,19.51a78.5,78.5,0,0,1,36.377,21.023l18.291-7.384a3.3,3.3,0,0,1,4.1,1.411l13.836,23.964a3.3,3.3,0,0,1-.826,4.254L183.228,77.756a79.372,79.372,0,0,1,0,42.029L198.75,131.92a3.3,3.3,0,0,1,.826,4.253Zm-97.866-21.69,16.515-28.076a3.3,3.3,0,1,0-5.694-3.35L96.016,111.133a3.3,3.3,0,1,0,5.694,3.35Zm-12.9-28.375a3.3,3.3,0,0,0-4.671,0L73.814,96.435a3.3,3.3,0,0,0,0,4.671l10.327,10.327a3.3,3.3,0,0,0,4.671-4.671l-7.991-7.991,7.991-7.991a3.3,3.3,0,0,0,0-4.672Zm38.54,26.293a3.293,3.293,0,0,0,2.336-.967l10.327-10.327a3.3,3.3,0,0,0,0-4.671L129.687,86.107a3.3,3.3,0,1,0-4.671,4.671l7.991,7.991-7.991,7.991a3.307,3.307,0,0,0,2.335,5.64ZM87.79,151.49a56.16,56.16,0,0,0,19.362,3.462c40.8,0,68.149-42.607,50.914-79.794A56.217,56.217,0,0,0,83.509,47.824c-35.714,16.552-43.811,64.143-15.248,91.5a3.3,3.3,0,1,0,4.569-4.771C47.644,110.429,54.758,68.43,86.286,53.818a49.546,49.546,0,1,1,3.777,91.47,3.3,3.3,0,1,0-2.273,6.2Z" fill="rgba(200,207,205,0.7)"/>
    </g>
    <g id="pasta" transform="translate(2309 937.5)">
      <g id="Group_13" data-name="Group 13">
        <g id="Group_12" data-name="Group 12">
          <path id="Path_25" data-name="Path 25" d="M142.97,24.53A83.75,83.75,0,0,0,24.53,142.97,83.75,83.75,0,0,0,142.97,24.53ZM139.5,139.5A78.843,78.843,0,0,1,28,28,78.843,78.843,0,0,1,139.5,139.5Z" fill="rgba(200,207,205,0.7)"/>
        </g>
      </g>
      <g id="Group_15" data-name="Group 15" transform="translate(37.961 30.836)">
        <g id="Group_14" data-name="Group 14">
          <path id="Path_26" data-name="Path 26" d="M185.772,168.929a34.344,34.344,0,0,0-5.829-17.33,10.856,10.856,0,0,0-16.308-11.67,87,87,0,0,0-11.289-3.032c-6.242-1.355-10.616-2.763-13.13-5.6-2.857-3.223-2.39-11.475-1.459-19.913.486-4.407,1.037-9.4,1.216-14.592a2.454,2.454,0,0,0-4.9-.168c-.172,5-.712,9.9-1.189,14.222-.7,6.31-1,11.56-.468,15.737a9.436,9.436,0,0,0-6.837-3.009,131.562,131.562,0,0,1,1.037-13.418c.152-1.384.307-2.783.452-4.2a2.454,2.454,0,0,0-4.882-.5c-.144,1.4-.3,2.788-.448,4.16a120.5,120.5,0,0,0-1.056,15.279,9.456,9.456,0,0,0,5.921,17.533c5.984,6.668,14.664,8.554,22.328,10.218,4.515.98,8.782,1.909,12.264,3.657a10.907,10.907,0,0,0,4.174,2.949c.014.016.027.032.042.048,3.022,3.095,4.465,7.764,4.411,14.274-.109,13.062,5.339,20.327,8.6,23.495a2.454,2.454,0,1,0,3.422-3.518c-3.292-3.2-7.2-9.261-7.11-19.936.047-5.652-.925-10.232-2.945-13.875a10.862,10.862,0,0,0,5.5-3.168,31.189,31.189,0,0,1,3.6,12.75,2.454,2.454,0,0,0,2.443,2.255q.1,0,.2-.008A2.453,2.453,0,0,0,185.772,168.929ZM125.5,137.593a4.555,4.555,0,1,1,4.555-4.555A4.56,4.56,0,0,1,125.5,137.593Zm33.033,12.4c-2.774-.877-5.7-1.514-8.563-2.136-6.7-1.455-13.612-2.957-18.509-7.477a9.452,9.452,0,0,0,3.469-6.6c.194.268.4.526.616.772,3.4,3.833,8.551,5.573,15.761,7.137,2.663.578,5.59,1.215,8.583,2.152a10.792,10.792,0,0,0-1.393,5.312C158.5,149.438,158.51,149.716,158.531,149.992Zm10.828,5.122a5.956,5.956,0,1,1,5.956-5.956A5.963,5.963,0,0,1,169.359,155.113Z" transform="translate(-116.036 -94.257)" fill="rgba(200,207,205,0.7)"/>
        </g>
      </g>
      <g id="Group_17" data-name="Group 17" transform="translate(103.519 113.764)">
        <g id="Group_16" data-name="Group 16">
          <path id="Path_27" data-name="Path 27" d="M321.815,351.627a17.61,17.61,0,0,1-.536-1.945,2.454,2.454,0,1,0-4.8,1.036,22.417,22.417,0,0,0,.688,2.494,2.454,2.454,0,1,0,4.644-1.585Z" transform="translate(-316.427 -347.746)" fill="rgba(200,207,205,0.7)"/>
        </g>
      </g>
      <g id="Group_19" data-name="Group 19" transform="translate(31.511 62.126)">
        <g id="Group_18" data-name="Group 18">
          <path id="Path_28" data-name="Path 28" d="M157.159,262.867c-4.142-5.935-6.984-16.209-6.911-24.985.035-4.146-.179-7.783-3.159-10.3-2.36-1.993-5.868-2.916-12.765-4.413-8.217-1.783-18.444-4-25.8-12.295-4.43-5-6.751-10.935-7.3-18.693a2.454,2.454,0,0,0-4.895.349c.625,8.769,3.413,15.835,8.526,21.6,8.419,9.493,19.514,11.9,28.429,13.834,5.243,1.138,9.074,2.045,10.64,3.367.97.819,1.455,2.051,1.418,6.509-.082,9.852,3.051,21.038,7.795,27.834a2.454,2.454,0,1,0,4.024-2.809Z" transform="translate(-96.321 -189.902)" fill="rgba(200,207,205,0.7)"/>
        </g>
      </g>
      <g id="Group_21" data-name="Group 21" transform="translate(28.033 85.915)">
        <g id="Group_20" data-name="Group 20">
          <path id="Path_29" data-name="Path 29" d="M136.54,312.886a49.507,49.507,0,0,1-4.155-16,9.456,9.456,0,0,0-10.74-14.528c-9.584-2.2-20.379-5.778-28.661-15.116a40.267,40.267,0,0,1-2.831-3.579,2.454,2.454,0,0,0-4.017,2.818,45.323,45.323,0,0,0,3.177,4.016c8.1,9.128,18.128,13.243,27.471,15.717a9.388,9.388,0,0,0-1.419,6.157,82.632,82.632,0,0,1-8.58-2.708,2.454,2.454,0,1,0-1.746,4.586A92.26,92.26,0,0,0,116.46,297.7c.244,1.674.55,3.314.849,4.876.149.778.322,1.573.514,2.365a2.454,2.454,0,0,0,4.769-1.157c-.173-.714-.329-1.431-.463-2.131q-.131-.681-.256-1.357a9.436,9.436,0,0,0,6-.074,51.283,51.283,0,0,0,4.255,14.8,2.454,2.454,0,1,0,4.417-2.138Zm-11.779-17.041a4.555,4.555,0,1,1,4.555-4.555A4.56,4.56,0,0,1,124.761,295.844Z" transform="translate(-85.69 -262.618)" fill="rgba(200,207,205,0.7)"/>
        </g>
      </g>
      <g id="Group_23" data-name="Group 23" transform="translate(31.551 105.211)">
        <g id="Group_22" data-name="Group 22">
          <path id="Path_30" data-name="Path 30" d="M104.742,324.939c-1.522-.892-3-1.858-4.407-2.872a2.454,2.454,0,1,0-2.876,3.976c1.529,1.106,3.145,2.159,4.8,3.13a2.454,2.454,0,1,0,2.48-4.234Z" transform="translate(-96.444 -321.602)" fill="rgba(200,207,205,0.7)"/>
        </g>
      </g>
      <g id="Group_25" data-name="Group 25" transform="translate(72.744 21.8)">
        <g id="Group_24" data-name="Group 24">
          <path id="Path_31" data-name="Path 31" d="M280.271,157.7a23.833,23.833,0,0,1-.334-4.188c.065-17.619-5.919-31.737-17.787-41.961C254.545,105,244.738,100.237,233,97.386a1.9,1.9,0,0,1-1.421-2.057l.1-.9c.348-3.13.808-7.277,1.087-12.027a8.063,8.063,0,1,0-4.912-.071c-.273,4.537-.716,8.531-1.052,11.556l-.1.9a6.816,6.816,0,0,0,5.14,7.364c10.975,2.666,20.094,7.08,27.1,13.119,10.731,9.245,16.142,22.105,16.083,38.225a28.784,28.784,0,0,0,.407,5.052,2.454,2.454,0,0,0,4.834-.847Zm-53-83.009a3.153,3.153,0,1,1,3.153,3.153A3.157,3.157,0,0,1,227.266,74.7Z" transform="translate(-222.359 -66.636)" fill="rgba(200,207,205,0.7)"/>
        </g>
      </g>
      <g id="Group_27" data-name="Group 27" transform="translate(89.093 33.617)">
        <g id="Group_26" data-name="Group 26">
          <path id="Path_32" data-name="Path 32" d="M323.018,159.263a55.744,55.744,0,0,0-7.091-16.638,8.06,8.06,0,1,0-8.744-11q-.683-.693-1.388-1.373a76.7,76.7,0,0,0-27.625-16.87,1.293,1.293,0,0,1-.927-1.314c.2-2.341.34-4.55.439-6.751a2.454,2.454,0,0,0-4.9-.22c-.1,2.138-.236,4.284-.426,6.562a6.208,6.208,0,0,0,4.222,6.364c15.839,5.442,36.256,19.807,41.671,42.382a2.454,2.454,0,0,0,4.772-1.144Zm-11.526-24.6a3.153,3.153,0,1,1,3.153,3.153A3.157,3.157,0,0,1,311.493,134.668Z" transform="translate(-272.332 -102.756)" fill="rgba(200,207,205,0.7)"/>
        </g>
      </g>
      <g id="Group_29" data-name="Group 29" transform="translate(100.668 34.121)">
        <g id="Group_28" data-name="Group 28">
          <path id="Path_33" data-name="Path 33" d="M333.464,119.773a90.562,90.562,0,0,0-20.772-13.134,2.454,2.454,0,0,0-4.9,0q-.032.725-.071,1.432a2.453,2.453,0,0,0,1.481,2.387,85.4,85.4,0,0,1,21.1,13.061,2.454,2.454,0,1,0,3.167-3.748Z" transform="translate(-307.715 -104.298)" fill="rgba(200,207,205,0.7)"/>
        </g>
      </g>
      <g id="Group_31" data-name="Group 31" transform="translate(65.069 34.017)">
        <g id="Group_30" data-name="Group 30">
          <path id="Path_34" data-name="Path 34" d="M254.049,189.043a30.2,30.2,0,0,1-1.143-8.7c.07-16.532-5.513-29.124-16.593-37.427-9.061-6.789-19.561-9.067-25.834-10.428l-4.111-.893a3.207,3.207,0,0,1-2.559-3.3c.159-2.9.541-6.354.848-9.132.415-3.767.886-8.036,1.143-12.582a2.454,2.454,0,1,0-4.9-.276c-.249,4.415-.712,8.614-1.121,12.324-.313,2.833-.7,6.359-.869,9.4a8.093,8.093,0,0,0,6.416,8.368l4.111.893c5.883,1.277,15.729,3.413,23.933,9.56,9.77,7.32,14.692,18.584,14.628,33.479a36.437,36.437,0,0,0,1.029,8.976,8.06,8.06,0,1,0,5.022-.251Zm-2.13,10.925a3.153,3.153,0,1,1,3.153-3.153A3.157,3.157,0,0,1,251.919,199.968Z" transform="translate(-198.897 -103.981)" fill="rgba(200,207,205,0.7)"/>
        </g>
      </g>
      <g id="Group_33" data-name="Group 33" transform="translate(95.313 24.529)">
        <g id="Group_32" data-name="Group 32">
          <path id="Path_35" data-name="Path 35" d="M296.839,75.782l-2.336-.7a2.454,2.454,0,0,0-1.41,4.7l2.336.7a2.454,2.454,0,1,0,1.41-4.7Z" transform="translate(-291.343 -74.977)" fill="rgba(200,207,205,0.7)"/>
        </g>
      </g>
      <g id="Group_35" data-name="Group 35" transform="translate(134.325 100.686)">
        <g id="Group_34" data-name="Group 34">
          <path id="Path_36" data-name="Path 36" d="M416.113,310.639,415.179,309a2.454,2.454,0,0,0-4.261,2.435l.934,1.635a2.454,2.454,0,0,0,4.261-2.435Z" transform="translate(-410.595 -307.768)" fill="rgba(200,207,205,0.7)"/>
        </g>
      </g>
      <g id="Group_37" data-name="Group 37" transform="translate(46.721 124.28)">
        <g id="Group_36" data-name="Group 36">
          <path id="Path_37" data-name="Path 37" d="M148.581,383.254l-1.168-2.1a2.454,2.454,0,0,0-4.29,2.383l1.168,2.1a2.454,2.454,0,0,0,4.29-2.384Z" transform="translate(-142.814 -379.889)" fill="rgba(200,207,205,0.7)"/>
        </g>
      </g>
      <g id="Group_39" data-name="Group 39" transform="translate(58.636 135.494)">
        <g id="Group_38" data-name="Group 38">
          <path id="Path_38" data-name="Path 38" d="M184.024,414.167h-2.336a2.454,2.454,0,0,0,0,4.907h2.336a2.454,2.454,0,0,0,0-4.907Z" transform="translate(-179.234 -414.167)" fill="rgba(200,207,205,0.7)"/>
        </g>
      </g>
      <g id="Group_41" data-name="Group 41" transform="translate(96.481 138.998)">
        <g id="Group_40" data-name="Group 40">
          <path id="Path_39" data-name="Path 39" d="M299,424.878h-1.635a2.454,2.454,0,0,0,0,4.907H299a2.454,2.454,0,0,0,0-4.907Z" transform="translate(-294.915 -424.878)" fill="rgba(200,207,205,0.7)"/>
        </g>
      </g>
      <g id="Group_43" data-name="Group 43" transform="translate(31.07 46.021)">
        <g id="Group_42" data-name="Group 42">
          <path id="Path_40" data-name="Path 40" d="M101.083,141.228a2.454,2.454,0,0,0-3.453.345l-2.1,2.569a2.454,2.454,0,1,0,3.8,3.108l2.1-2.57A2.454,2.454,0,0,0,101.083,141.228Z" transform="translate(-94.973 -140.674)" fill="rgba(200,207,205,0.7)"/>
        </g>
      </g>
      <g id="Group_45" data-name="Group 45" transform="translate(23.477 75.339)">
        <g id="Group_44" data-name="Group 44">
          <path id="Path_41" data-name="Path 41" d="M76.451,230.689l-1.752-.35a2.454,2.454,0,0,0-.962,4.812l1.752.35a2.454,2.454,0,0,0,.962-4.812Z" transform="translate(-71.764 -230.29)" fill="rgba(200,207,205,0.7)"/>
        </g>
      </g>
    </g>
  </g>
</svg>
