<svg xmlns="http://www.w3.org/2000/svg" xmlns:xlink="http://www.w3.org/1999/xlink" width="2560" height="1440" viewBox="0 0 2560 1440">
  <defs>
    <clipPath id="clip-contact-backdrop">
      <rect width="2560" height="1440"/>
    </clipPath>
  </defs>
  <g id="contact-backdrop" clip-path="url(#clip-contact-backdrop)">
    <rect width="2560" height="1440" fill="#fff"/>
    <rect id="Rectangle_1" data-name="Rectangle 1" width="2560" height="1441" fill="#222629"/>
    <g id="cloud" transform="translate(48 563.896)">
      <g id="Group_3" data-name="Group 3" transform="translate(0 36.8)">
        <g id="Group_2" data-name="Group 2">
          <path id="Path_2" data-name="Path 2" d="M319.1,154.287c-1.742,0-3.483.134-5.359.268a59.155,59.155,0,0,0-53.317-42.064,109.126,109.126,0,0,0-213,33.49,111.4,111.4,0,0,0,1.206,16.21A83.927,83.927,0,1,0,134.9,305a63.017,63.017,0,0,0,107.842,19.96,41.734,41.734,0,0,0,65.376-3.348,100.721,100.721,0,0,0,10.986.669,84,84,0,1,0,0-167.992Zm.134,150.978a65.255,65.255,0,0,1-13.53-1.34l-6.3-1.206-2.948,5.626a24.772,24.772,0,0,1-22.239,13.8,25.078,25.078,0,0,1-23.444-16.076l-6.832-17.281L235.51,305.4a46.125,46.125,0,0,1-87.078-17.281l-1.608-19.425L134.1,283.161A67.182,67.182,0,1,1,61.221,175.051l6.832-2.546-1.608-7.1A90.469,90.469,0,0,1,64.3,145.713a92.344,92.344,0,0,1,181.79-23.042l1.742,6.7,7.77-.536a8.814,8.814,0,0,1,1.875-.134,42.185,42.185,0,0,1,41.529,35.9l1.206,8.44,8.44-1.34a61.877,61.877,0,0,1,10.584-.938,67.251,67.251,0,0,1,0,134.5Z" transform="translate(0 -36.8)" fill="rgba(121,175,45,0.7)"/>
        </g>
      </g>
      <g id="Group_5" data-name="Group 5" transform="translate(229.079 167.281)">
        <g id="Group_4" data-name="Group 4">
          <path id="Path_3" data-name="Path 3" d="M194.322,140.693,182.4,152.617l29.74,29.606-29.74,29.74,11.922,11.922,41.529-41.663Z" transform="translate(-182.4 -140.693)" fill="rgba(121,175,45,0.7)"/>
        </g>
      </g>
      <g id="Group_7" data-name="Group 7" transform="translate(104.627 167.281)">
        <g id="Group_6" data-name="Group 6">
          <path id="Path_4" data-name="Path 4" d="M136.759,152.617l-11.924-11.924L83.307,182.222l41.528,41.663,11.924-11.922-29.74-29.74Z" transform="translate(-83.307 -140.693)" fill="rgba(121,175,45,0.7)"/>
        </g>
      </g>
      <g id="Group_9" data-name="Group 9" transform="translate(155.942 145.762)">
        <g id="Group_8" data-name="Group 8" transform="translate(0 0)">
          <rect id="Rectangle_3" data-name="Rectangle 3" width="132.621" height="16.745" transform="translate(0 118.616) rotate(-63.435)" fill="rgba(121,175,45,0.7)"/>
        </g>
      </g>
    </g>
    <g id="ruler" transform="translate(2371.265 702) rotate(180)">
      <g id="Group_10" data-name="Group 10" transform="translate(8 8)">
        <path id="Path_5" data-name="Path 5" d="M375.523,339.872,29.337,9.662A6.112,6.112,0,0,0,25.123,8H13.956A5.823,5.823,0,0,0,8,13.681V354.543a5.823,5.823,0,0,0,5.956,5.681H371.309a5.823,5.823,0,0,0,5.956-5.681V343.892A5.557,5.557,0,0,0,375.523,339.872Zm-10.17,8.99H341.529V337.5a5.963,5.963,0,0,0-11.912,0v11.362H305.794v-5.681a5.963,5.963,0,0,0-11.912,0v5.681H270.059V337.5a5.963,5.963,0,0,0-11.912,0v11.362H234.324v-5.681a5.963,5.963,0,0,0-11.912,0v5.681H198.588V337.5a5.963,5.963,0,0,0-11.912,0v11.362H162.853v-5.681a5.963,5.963,0,0,0-11.912,0v5.681H127.118V337.5a5.963,5.963,0,0,0-11.912,0v11.362H91.382v-5.681a5.963,5.963,0,0,0-11.912,0v5.681H55.647V337.5a5.963,5.963,0,0,0-11.912,0v11.362H19.912V326.138H31.824a5.687,5.687,0,1,0,0-11.362H19.912V292.052h5.956a5.687,5.687,0,1,0,0-11.362H19.912V257.966H31.824a5.687,5.687,0,1,0,0-11.362H19.912V223.88h5.956a5.687,5.687,0,1,0,0-11.362H19.912V189.793H31.824a5.687,5.687,0,1,0,0-11.362H19.912V155.707h5.956a5.687,5.687,0,1,0,0-11.362H19.912V121.621H31.824a5.687,5.687,0,1,0,0-11.362H19.912V87.535h5.956a5.687,5.687,0,1,0,0-11.362H19.912V53.448H31.824a5.687,5.687,0,1,0,0-11.362H19.912V19.362h2.747l342.694,326.88Z" transform="translate(-8 -8)" fill="rgba(121,175,45,0.7)"/>
        <path id="Path_6" data-name="Path 6" d="M112,408H288a8,8,0,0,0,5.657-13.657l-176-176A8,8,0,0,0,104,224V400A8,8,0,0,0,112,408Zm8-164.687L268.686,392H120Z" transform="translate(-48.022 -106.373)" fill="rgba(121,175,45,0.7)"/>
        <path id="Path_7" data-name="Path 7" d="M493.71,278.51,233.49,18.29a8,8,0,0,0-11.31,0L154.29,86.18a8,8,0,0,0,0,11.31L414.51,357.71a8,8,0,0,0,11.31,0l67.89-67.89a8,8,0,0,0,0-11.31Zm-73.54,62.23-5.66-5.66,5.66-5.66a8,8,0,0,0-11.32-11.31l-5.65,5.65-11.32-11.31,16.97-16.97a8,8,0,0,0-11.31-11.31l-16.97,16.97-11.32-11.32,5.66-5.65a8,8,0,0,0-11.31-11.32l-5.66,5.66L346.63,267.2l16.97-16.97a8,8,0,1,0-11.32-11.32l-16.97,16.97L324,244.57l5.66-5.66a8,8,0,1,0-11.32-11.31l-5.65,5.65-11.32-11.31,16.97-16.97a8,8,0,0,0-11.31-11.31l-16.97,16.97-11.31-11.32,5.65-5.65a8,8,0,0,0-11.31-11.32L267.43,188l-11.31-11.31,16.97-16.97a8,8,0,1,0-11.32-11.32L244.8,165.37l-11.31-11.31,5.66-5.66a8,8,0,1,0-11.32-11.31l-5.65,5.65-11.32-11.31,16.97-16.97a8,8,0,0,0-11.31-11.31l-16.97,16.97L188.24,108.8l5.65-5.65a8,8,0,1,0-11.31-11.32l-5.66,5.66-5.65-5.66,39.59-39.59,248.9,248.9Zm50.91-50.92L222.18,40.92l5.65-5.66,248.9,248.91Z" transform="translate(-134.735 -8)" fill="rgba(121,175,45,0.7)"/>
      </g>
    </g>
  </g>
</svg>
