<svg xmlns="http://www.w3.org/2000/svg" xmlns:xlink="http://www.w3.org/1999/xlink" width="2560" height="1440" viewBox="0 0 2560 1440">
  <defs>
    <clipPath id="clip-work-backdrop">
      <rect width="2560" height="1440"/>
    </clipPath>
  </defs>
  <g id="work-backdrop" clip-path="url(#clip-work-backdrop)">
    <rect width="2560" height="1440" fill="#fff"/>
    <rect id="Rectangle_1" data-name="Rectangle 1" width="2560" height="1441" fill="#25274d"/>
    <g id="repair" transform="translate(2191.5 488.96)">
      <path id="Path_8" data-name="Path 8" d="M343.747,155.148a6.406,6.406,0,1,0,6.407,6.4A6.4,6.4,0,0,0,343.747,155.148Zm0,0" transform="translate(-121.025 -55.744)" fill="rgba(45,156,202,0.7)"/>
      <path id="Path_9" data-name="Path 9" d="M162.052,336.84a6.407,6.407,0,1,0,6.407,6.407A6.4,6.4,0,0,0,162.052,336.84Zm0,0" transform="translate(-55.743 -121.025)" fill="rgba(45,156,202,0.7)"/>
      <path id="Path_10" data-name="Path 10" d="M320.57,39.416a6.4,6.4,0,0,0-6,1.727L288.012,67.914H275.278L261.26,53.391V40.479l26.181-26.572a6.407,6.407,0,0,0-2.518-10.567,64.12,64.12,0,0,0-82.361,77.33l-47.194,47.194L76.741,49.059V33.592A6.406,6.406,0,0,0,73.63,28.1L28.328.913a6.4,6.4,0,0,0-7.826.964L2.382,19.994a6.413,6.413,0,0,0-.964,7.829l27.18,45.3a6.407,6.407,0,0,0,5.491,3.111l15.462.005,78.634,78.807L81.171,202.062a64.11,64.11,0,0,0-77.33,82.361A6.407,6.407,0,0,0,14.46,286.89l26.559-26.77h12.8l14.589,14.589v12.8L41.643,314.073a6.407,6.407,0,0,0,2.468,10.619,64.085,64.085,0,0,0,72.46-23.341,63.355,63.355,0,0,0,9.9-53.989L164.23,209.6l8.65,9.4-3.969,3.967a6.408,6.408,0,0,0,9.062,9.062l3.594-3.594,81.154,88.152c.06.065.123.128.185.19a38.445,38.445,0,0,0,54.37-54.37c-.065-.065-.133-.128-.2-.19l-88.29-81,3.554-3.554a6.407,6.407,0,0,0-9.062-9.06l-3.942,3.944-9.413-8.64,37.942-37.942A64.106,64.106,0,0,0,325.189,43.61a6.4,6.4,0,0,0-4.62-4.195ZM56.745,65.309a6.341,6.341,0,0,0-4.532-1.817l-14.491-.005L14.981,25.52,26.026,14.476l37.9,22.745V51.712A6.405,6.405,0,0,0,65.8,56.237l80.508,80.691-9.062,9.06ZM219.716,190.287l88.59,81.272A25.632,25.632,0,0,1,272.054,307.8l-81.42-88.44Zm-9.45-8.672-28.319,28.314-8.65-9.4,27.555-27.558Zm54.2-66.291a51.2,51.2,0,0,1-16.376-2.67,6.418,6.418,0,0,0-6.575,1.542c-32.12,32.12-101.331,101.329-126.817,126.817a6.405,6.405,0,0,0-1.542,6.577A51.307,51.307,0,0,1,64.568,315.22a52.48,52.48,0,0,1-5.586-.3l20.35-20.192a6.4,6.4,0,0,0,1.895-4.548V272.055a6.407,6.407,0,0,0-1.877-4.53L61.007,249.182a6.407,6.407,0,0,0-4.53-1.877H38.352A6.415,6.415,0,0,0,33.8,249.2l-20.19,20.35a51.831,51.831,0,0,1-.3-5.586,51.308,51.308,0,0,1,67.632-48.586,6.4,6.4,0,0,0,6.575-1.542c.353-.35,126.727-126.727,126.817-126.817a6.406,6.406,0,0,0,1.542-6.575,51.3,51.3,0,0,1,48.583-67.629,52.359,52.359,0,0,1,5.754.318L250.288,33.357a6.4,6.4,0,0,0-1.842,4.495V55.976a6.4,6.4,0,0,0,1.8,4.45l17.7,18.343a6.4,6.4,0,0,0,4.61,1.957h18.125a6.4,6.4,0,0,0,4.547-1.895l20.19-20.347a51.83,51.83,0,0,1,.3,5.586,51.312,51.312,0,0,1-51.254,51.254Zm0,0" transform="translate(0 0)" fill="rgba(45,156,202,0.7)"/>
      <path id="Path_11" data-name="Path 11" d="M265.975,185.3,185.8,265.478a6.407,6.407,0,0,0,9.062,9.06l80.176-80.176a6.407,6.407,0,0,0-9.062-9.06Zm0,0" transform="translate(-65.903 -65.904)" fill="rgba(45,156,202,0.7)"/>
      <path id="Path_12" data-name="Path 12" d="M404.913,413.581a6.407,6.407,0,1,0,9.047-9.075L356.21,346.94a6.407,6.407,0,0,0-9.047,9.075Zm0,0" transform="translate(-123.877 -123.983)" fill="rgba(45,156,202,0.7)"/>
    </g>
    <g id="work-schedule" transform="translate(965.5 259)">
      <g id="Group_11" data-name="Group 11" transform="translate(15.5 0)">
        <path id="Path_13" data-name="Path 13" d="M26.07,110.812A100.241,100.241,0,1,1,210.1,165.863l8.828,5.812a110.8,110.8,0,1,0-109.452,48.677l1.594-10.449c-48.457-7.39-85-49.99-85-99.091Z" transform="translate(-15.5 0)" fill="rgba(45,156,202,0.7)"/>
        <path id="Path_14" data-name="Path 14" d="M165.248,29.486h10.57v10.57h-10.57Z" transform="translate(-59.721 -8.707)" fill="rgba(45,156,202,0.7)"/>
        <path id="Path_15" data-name="Path 15" d="M285.248,149.486h10.57v10.57h-10.57Z" transform="translate(-95.158 -44.144)" fill="rgba(45,156,202,0.7)"/>
        <path id="Path_16" data-name="Path 16" d="M45.248,149.486h10.57v10.57H45.248Z" transform="translate(-24.285 -44.144)" fill="rgba(45,156,202,0.7)"/>
        <path id="Path_17" data-name="Path 17" d="M0,0H10.57V10.57H0Z" transform="translate(43.531 50.837) rotate(-45)" fill="rgba(45,156,202,0.7)"/>
        <path id="Path_18" data-name="Path 18" d="M0,0H10.57V10.57H0Z" transform="translate(43.521 170.403) rotate(-45)" fill="rgba(45,156,202,0.7)"/>
        <path id="Path_19" data-name="Path 19" d="M0,0H10.57V10.57H0Z" transform="translate(163.109 50.846) rotate(-45)" fill="rgba(45,156,202,0.7)"/>
        <path id="Path_20" data-name="Path 20" d="M107.157,179.776l36.914-36.914c10.768,5.318,22.925-2.879,23.191-14.494.085-3.744,0-64.642,0-68.716H135.08v62.361c0,4.478-.424,9.167,1.563,13.327L99.682,172.3ZM156.691,70.222v43.089a16.17,16.17,0,0,0-11.04,0V70.222Zm-5.52,52.684c7.1,0,7.1,11.04,0,11.04S144.057,122.907,151.171,122.907Z" transform="translate(-40.359 -17.616)" fill="rgba(45,156,202,0.7)"/>
        <path id="Path_21" data-name="Path 21" d="M165.248,254.986V424.113H386.69V254.986Zm10.57,158.556V297.267H333.676V286.7H175.818v-21.14h200.3V286.7H365.387v10.57H376.12V413.542Z" transform="translate(-59.721 -75.299)" fill="rgba(45,156,202,0.7)"/>
        <path id="Path_22" data-name="Path 22" d="M419.255,299.985h10.57v10.57h-10.57Z" transform="translate(-134.731 -88.587)" fill="rgba(45,156,202,0.7)"/>
        <path id="Path_23" data-name="Path 23" d="M194.486,424.687H374.653V329.318H194.486Zm10.57-42.4h32.181v31.829H205.056Zm84.922-10.57V339.888h31.587v31.829Zm31.587,10.57v31.829H289.979V382.288Zm-42.158-10.57h-31.6V339.888h31.6Zm0,10.57v31.829h-31.6V382.288Zm52.728,31.829V382.288h31.947v31.829Zm31.947-42.4H332.136V339.888h31.947ZM237.238,339.888v31.829H205.056V339.888Z" transform="translate(-68.355 -97.249)" fill="rgba(45,156,202,0.7)"/>
      </g>
    </g>
    <ellipse id="Ellipse_16" data-name="Ellipse 16" cx="196" cy="189" rx="196" ry="189" transform="translate(0 13)" fill="rgba(45,156,202,0.7)"/>
    <ellipse id="Ellipse_15" data-name="Ellipse 15" cx="162.5" cy="157" rx="162.5" ry="157" transform="translate(34 46)" fill="#25274d"/>
    <ellipse id="Ellipse_17" data-name="Ellipse 17" cx="111" cy="107" rx="111" ry="107" transform="translate(85 95)" fill="rgba(45,156,202,0.7)"/>
    <ellipse id="Ellipse_18" data-name="Ellipse 18" cx="82" cy="79" rx="82" ry="79" transform="translate(114 123)" fill="#25274d"/>
    <ellipse id="Ellipse_19" data-name="Ellipse 19" cx="42" cy="40.5" rx="42" ry="40.5" transform="translate(154 162)" fill="rgba(45,156,202,0.7)"/>
  </g>
</svg>
